<svg width="512" height="512" viewBox="0 0 512 512" fill="none" xmlns="http://www.w3.org/2000/svg">
<path d="M512 256C512 114.615 397.385 0 256 0C114.615 0 0 114.615 0 256C0 397.385 114.615 512 256 512C397.385 512 512 397.385 512 256Z" fill="#CCCCCC"/>
<mask id="mask0" mask-type="alpha" maskUnits="userSpaceOnUse" x="10" y="10" width="492" height="492">
<path d="M501.1 256C501.1 120.635 391.365 10.9 256 10.9C120.635 10.9 10.9 120.635 10.9 256C10.9 391.365 120.635 501.1 256 501.1C391.365 501.1 501.1 391.365 501.1 256Z" fill="white"/>
</mask>
<g mask="url(#mask0)">
<path d="M555.838 191.3L193.8 553.338L255.318 614.857L617.357 252.818L555.838 191.3Z" fill="#693A80"/>
<path d="M496.441 131.903L134.403 493.941L195.921 555.46L557.96 193.421L496.441 131.903Z" fill="#4364A6"/>
<path d="M438.459 73.92L76.42 435.959L137.938 497.477L499.977 135.438L438.459 73.92Z" fill="#3B7942"/>
<path d="M379.062 14.5231L17.023 376.562L78.5413 438.08L440.58 76.0414L379.062 14.5231Z" fill="#E7D517"/>
<path d="M319.665 -44.8739L-42.3739 317.165L19.1443 378.683L381.183 16.6444L319.665 -44.8739Z" fill="#E99046"/>
<path d="M261.682 -102.857L-100.357 259.182L-38.8384 320.7L323.2 -41.3383L261.682 -102.857Z" fill="#D03C3D"/>
<rect opacity="0.9" x="146" y="171" width="220" height="60" fill="white"/>
<rect opacity="0.9" x="146" y="291" width="220" height="60" fill="white"/>
</g>
</svg>
